<?xml version="1.0" encoding="UTF-8" standalone="no"?>
<svg
   xmlns:dc="http://purl.org/dc/elements/1.1/"
   xmlns:cc="http://creativecommons.org/ns#"
   xmlns:rdf="http://www.w3.org/1999/02/22-rdf-syntax-ns#"
   xmlns:svg="http://www.w3.org/2000/svg"
   xmlns="http://www.w3.org/2000/svg"
   viewBox="0 0 312.96249 386.88751"
   height="386.88751"
   width="312.96249"
   xml:space="preserve"
   version="1.1"
   id="svg2"><metadata
     id="metadata8"><rdf:RDF><cc:Work
         rdf:about=""><dc:format>image/svg+xml</dc:format><dc:type
           rdf:resource="http://purl.org/dc/dcmitype/StillImage" /></cc:Work></rdf:RDF></metadata><defs
     id="defs6"><clipPath
       id="clipPath18"
       clipPathUnits="userSpaceOnUse"><path
         id="path20"
         d="m 0,0 2503.71,0 0,3095 L 0,3095 0,0 Z" /></clipPath></defs><g
     transform="matrix(1.25,0,0,-1.25,0,386.8875)"
     id="g10"><g
       transform="scale(0.1,0.1)"
       id="g12"><g
         id="g14"><g
           clip-path="url(#clipPath18)"
           id="g16"><path
             id="path22"
             style="fill:#f14b40;fill-opacity:1;fill-rule:nonzero;stroke:none"
             d="m 2437.98,1351.35 c 20.68,61.3 36.75,124.7 47.78,189.87 0.24,1.33 0.49,2.64 0.72,3.98 2.16,13.03 4.07,26.14 5.81,39.32 0.89,6.78 1.77,13.57 2.59,20.39 1.23,10.71 2.41,21.45 3.4,32.24 0.94,10.35 1.66,20.8 2.36,31.24 0.55,8.33 1.22,16.61 1.61,24.99 0.85,18.48 1.35,37.12 1.4,55.9 0,0.76 0.06,1.53 0.06,2.29 0,0.06 0,0.13 0,0.21 0,0.08 0,0.15 0,0.24 0,691.13 -560.31,1251.39 -1251.41,1251.39 -0.07,0 -0.13,0 -0.23,0 -0.06,0 -0.14,0 -0.21,0 C 560.449,3003.41 0,2442.96 0,1751.57 0,1125.43 459.609,606.738 1059.83,514.352 L 955.664,0 c 0,0 1149.396,453.031 1467.326,1309.02 4.57,12.15 8.87,24.42 13.07,36.7 0.66,1.86 1.28,3.73 1.92,5.63" /><g
             transform="scale(10,10)"
             id="g24"><text
               id="text26"
               style="font-variant:normal;font-weight:normal;font-size:242.00700378px;font-family:Lobster;-inkscape-font-specification:Lobster;writing-mode:lr-tb;fill:#ffffff;fill-opacity:1;fill-rule:nonzero;stroke:none"
               transform="matrix(1,0,0,-1,88.7773,97.7551)"><tspan
                 id="tspan28"
                 y="0"
                 x="0">t</tspan></text>
</g></g></g></g></g></svg>